<?xml version="1.0" encoding="utf-8" standalone="no"?>
<!DOCTYPE svg PUBLIC "-//W3C//DTD SVG 1.1//EN"
  "http://www.w3.org/Graphics/SVG/1.1/DTD/svg11.dtd">
<!-- Created with matplotlib (http://matplotlib.org/) -->
<svg height="432pt" version="1.1" viewBox="0 0 576 432" width="576pt" xmlns="http://www.w3.org/2000/svg" xmlns:xlink="http://www.w3.org/1999/xlink">
 <defs>
  <style type="text/css">
*{stroke-linecap:square;stroke-linejoin:round;}
  </style>
 </defs>
 <g id="figure_1">
  <g id="patch_1">
   <path d="
M0 432
L576 432
L576 0
L0 0
z
" style="fill:#ffffff;"/>
  </g>
  <g id="patch_2">
   <path d="
M72 388.8
L518.4 388.8
L518.4 43.2
L72 43.2
z
" style="fill:#ffffff;"/>
  </g>
  <g id="pane3d_1">
   <g id="patch_3">
    <path d="
M131.177 312.435
L258.939 227.701
L256.812 65.7899
L121.927 141.921" style="fill:#f2f2f2;opacity:0.5;stroke:#f2f2f2;"/>
   </g>
  </g>
  <g id="pane3d_2">
   <g id="patch_4">
    <path d="
M258.939 227.701
L465.902 275.073
L474.561 108.279
L256.812 65.7899" style="fill:#e6e6e6;opacity:0.5;stroke:#e6e6e6;"/>
   </g>
  </g>
  <g id="pane3d_3">
   <g id="patch_5">
    <path d="
M131.177 312.435
L348.93 367.606
L465.902 275.073
L258.939 227.701" style="fill:#ececec;opacity:0.5;stroke:#ececec;"/>
   </g>
  </g>
  <g id="axis3d_1">
   <g id="line2d_1">
    <path d="
M131.177 312.435
L348.93 367.606" style="fill:none;stroke:#000000;stroke-width:0.75;"/>
   </g>
   <g id="Line3DCollection_1">
    <defs>
     <path d="
M135.341 -118.51
L262.91 -203.39
L260.981 -365.397" id="C0_0_07aeb28047"/>
     <path d="
M160.484 -112.14
L286.875 -197.905
L286.148 -360.486" id="C0_1_c80ce27d6d"/>
     <path d="
M185.899 -105.701
L311.08 -192.364
L311.581 -355.523" id="C0_2_8b413bddcd"/>
     <path d="
M211.591 -99.191
L335.53 -186.768
L337.285 -350.508" id="C0_3_e9562a5768"/>
     <path d="
M237.566 -92.6099
L360.229 -181.115
L363.263 -345.439" id="C0_4_3c79f2f2e6"/>
     <path d="
M263.826 -85.9563
L385.18 -175.404
L389.52 -340.315" id="C0_5_34be8f9f47"/>
     <path d="
M290.378 -79.2289
L410.388 -169.634
L416.061 -335.136" id="C0_6_681583d95e"/>
     <path d="
M317.226 -72.4264
L435.855 -163.805
L442.89 -329.901" id="C0_7_b940c5309d"/>
     <path d="
M344.375 -65.5477
L461.587 -157.915
L470.012 -324.609" id="C0_8_01854ad9a3"/>
    </defs>
    <use style="fill:none;stroke:#e6e6e6;stroke-linecap:butt;" x="0" xlink:href="#C0_0_07aeb28047" y="432.0"/>
    <use style="fill:none;stroke:#e6e6e6;stroke-linecap:butt;" x="0" xlink:href="#C0_1_c80ce27d6d" y="432.0"/>
    <use style="fill:none;stroke:#e6e6e6;stroke-linecap:butt;" x="0" xlink:href="#C0_2_8b413bddcd" y="432.0"/>
    <use style="fill:none;stroke:#e6e6e6;stroke-linecap:butt;" x="0" xlink:href="#C0_3_e9562a5768" y="432.0"/>
    <use style="fill:none;stroke:#e6e6e6;stroke-linecap:butt;" x="0" xlink:href="#C0_4_3c79f2f2e6" y="432.0"/>
    <use style="fill:none;stroke:#e6e6e6;stroke-linecap:butt;" x="0" xlink:href="#C0_5_34be8f9f47" y="432.0"/>
    <use style="fill:none;stroke:#e6e6e6;stroke-linecap:butt;" x="0" xlink:href="#C0_6_681583d95e" y="432.0"/>
    <use style="fill:none;stroke:#e6e6e6;stroke-linecap:butt;" x="0" xlink:href="#C0_7_b940c5309d" y="432.0"/>
    <use style="fill:none;stroke:#e6e6e6;stroke-linecap:butt;" x="0" xlink:href="#C0_8_01854ad9a3" y="432.0"/>
   </g>
   <g id="xtick_1">
    <g id="line2d_2">
     <path d="
M136.44 312.758
L133.139 314.955" style="fill:none;stroke:#000000;"/>
    </g>
    <g id="text_1">
     <!-- 0 -->
     <defs>
      <path d="
M31.7812 66.4062
Q24.1719 66.4062 20.3281 58.9062
Q16.5 51.4219 16.5 36.375
Q16.5 21.3906 20.3281 13.8906
Q24.1719 6.39062 31.7812 6.39062
Q39.4531 6.39062 43.2812 13.8906
Q47.125 21.3906 47.125 36.375
Q47.125 51.4219 43.2812 58.9062
Q39.4531 66.4062 31.7812 66.4062
M31.7812 74.2188
Q44.0469 74.2188 50.5156 64.5156
Q56.9844 54.8281 56.9844 36.375
Q56.9844 17.9688 50.5156 8.26562
Q44.0469 -1.42188 31.7812 -1.42188
Q19.5312 -1.42188 13.0625 8.26562
Q6.59375 17.9688 6.59375 36.375
Q6.59375 54.8281 13.0625 64.5156
Q19.5312 74.2188 31.7812 74.2188" id="DejaVuSans-30"/>
     </defs>
     <g transform="translate(125.090041702 336.599035604)scale(0.12 -0.12)">
      <use xlink:href="#DejaVuSans-30"/>
     </g>
    </g>
   </g>
   <g id="xtick_2">
    <g id="line2d_3">
     <path d="
M161.573 319.121
L158.301 321.341" style="fill:none;stroke:#000000;"/>
    </g>
    <g id="text_2">
     <!-- 2 -->
     <defs>
      <path d="
M19.1875 8.29688
L53.6094 8.29688
L53.6094 0
L7.32812 0
L7.32812 8.29688
Q12.9375 14.1094 22.625 23.8906
Q32.3281 33.6875 34.8125 36.5312
Q39.5469 41.8438 41.4219 45.5312
Q43.3125 49.2188 43.3125 52.7812
Q43.3125 58.5938 39.2344 62.25
Q35.1562 65.9219 28.6094 65.9219
Q23.9688 65.9219 18.8125 64.3125
Q13.6719 62.7031 7.8125 59.4219
L7.8125 69.3906
Q13.7656 71.7812 18.9375 73
Q24.125 74.2188 28.4219 74.2188
Q39.75 74.2188 46.4844 68.5469
Q53.2188 62.8906 53.2188 53.4219
Q53.2188 48.9219 51.5312 44.8906
Q49.8594 40.875 45.4062 35.4062
Q44.1875 33.9844 37.6406 27.2188
Q31.1094 20.4531 19.1875 8.29688" id="DejaVuSans-32"/>
     </defs>
     <g transform="translate(150.476552662 343.055351526)scale(0.12 -0.12)">
      <use xlink:href="#DejaVuSans-32"/>
     </g>
    </g>
   </g>
   <g id="xtick_3">
    <g id="line2d_4">
     <path d="
M186.978 325.552
L183.737 327.796" style="fill:none;stroke:#000000;"/>
    </g>
    <g id="text_3">
     <!-- 4 -->
     <defs>
      <path d="
M37.7969 64.3125
L12.8906 25.3906
L37.7969 25.3906
z

M35.2031 72.9062
L47.6094 72.9062
L47.6094 25.3906
L58.0156 25.3906
L58.0156 17.1875
L47.6094 17.1875
L47.6094 0
L37.7969 0
L37.7969 17.1875
L4.89062 17.1875
L4.89062 26.7031
z
" id="DejaVuSans-34"/>
     </defs>
     <g transform="translate(175.479022082 349.424315429)scale(0.12 -0.12)">
      <use xlink:href="#DejaVuSans-34"/>
     </g>
    </g>
   </g>
   <g id="xtick_4">
    <g id="line2d_5">
     <path d="
M212.66 332.054
L209.45 334.322" style="fill:none;stroke:#000000;"/>
    </g>
    <g id="text_4">
     <!-- 6 -->
     <defs>
      <path d="
M33.0156 40.375
Q26.375 40.375 22.4844 35.8281
Q18.6094 31.2969 18.6094 23.3906
Q18.6094 15.5312 22.4844 10.9531
Q26.375 6.39062 33.0156 6.39062
Q39.6562 6.39062 43.5312 10.9531
Q47.4062 15.5312 47.4062 23.3906
Q47.4062 31.2969 43.5312 35.8281
Q39.6562 40.375 33.0156 40.375
M52.5938 71.2969
L52.5938 62.3125
Q48.875 64.0625 45.0938 64.9844
Q41.3125 65.9219 37.5938 65.9219
Q27.8281 65.9219 22.6719 59.3281
Q17.5312 52.7344 16.7969 39.4062
Q19.6719 43.6562 24.0156 45.9219
Q28.375 48.1875 33.5938 48.1875
Q44.5781 48.1875 50.9531 41.5156
Q57.3281 34.8594 57.3281 23.3906
Q57.3281 12.1562 50.6875 5.35938
Q44.0469 -1.42188 33.0156 -1.42188
Q20.3594 -1.42188 13.6719 8.26562
Q6.98438 17.9688 6.98438 36.375
Q6.98438 53.6562 15.1875 63.9375
Q23.3906 74.2188 37.2031 74.2188
Q40.9219 74.2188 44.7031 73.4844
Q48.4844 72.75 52.5938 71.2969" id="DejaVuSans-36"/>
     </defs>
     <g transform="translate(201.33661338 356.179576794)scale(0.12 -0.12)">
      <use xlink:href="#DejaVuSans-36"/>
     </g>
    </g>
   </g>
   <g id="xtick_5">
    <g id="line2d_6">
     <path d="
M238.624 338.626
L235.445 340.92" style="fill:none;stroke:#000000;"/>
    </g>
    <g id="text_5">
     <!-- 8 -->
     <defs>
      <path d="
M31.7812 34.625
Q24.75 34.625 20.7188 30.8594
Q16.7031 27.0938 16.7031 20.5156
Q16.7031 13.9219 20.7188 10.1562
Q24.75 6.39062 31.7812 6.39062
Q38.8125 6.39062 42.8594 10.1719
Q46.9219 13.9688 46.9219 20.5156
Q46.9219 27.0938 42.8906 30.8594
Q38.875 34.625 31.7812 34.625
M21.9219 38.8125
Q15.5781 40.375 12.0312 44.7188
Q8.5 49.0781 8.5 55.3281
Q8.5 64.0625 14.7188 69.1406
Q20.9531 74.2188 31.7812 74.2188
Q42.6719 74.2188 48.875 69.1406
Q55.0781 64.0625 55.0781 55.3281
Q55.0781 49.0781 51.5312 44.7188
Q48 40.375 41.7031 38.8125
Q48.8281 37.1562 52.7969 32.3125
Q56.7812 27.4844 56.7812 20.5156
Q56.7812 9.90625 50.3125 4.23438
Q43.8438 -1.42188 31.7812 -1.42188
Q19.7344 -1.42188 13.25 4.23438
Q6.78125 9.90625 6.78125 20.5156
Q6.78125 27.4844 10.7812 32.3125
Q14.7969 37.1562 21.9219 38.8125
M18.3125 54.3906
Q18.3125 48.7344 21.8438 45.5625
Q25.3906 42.3906 31.7812 42.3906
Q38.1406 42.3906 41.7188 45.5625
Q45.3125 48.7344 45.3125 54.3906
Q45.3125 60.0625 41.7188 63.2344
Q38.1406 66.4062 31.7812 66.4062
Q25.3906 66.4062 21.8438 63.2344
Q18.3125 60.0625 18.3125 54.3906" id="DejaVuSans-38"/>
     </defs>
     <g transform="translate(227.330150804 362.849810359)scale(0.12 -0.12)">
      <use xlink:href="#DejaVuSans-38"/>
     </g>
    </g>
   </g>
   <g id="xtick_6">
    <g id="line2d_7">
     <path d="
M264.874 345.272
L261.727 347.591" style="fill:none;stroke:#000000;"/>
    </g>
    <g id="text_6">
     <!-- 10 -->
     <defs>
      <path d="
M12.4062 8.29688
L28.5156 8.29688
L28.5156 63.9219
L10.9844 60.4062
L10.9844 69.3906
L28.4219 72.9062
L38.2812 72.9062
L38.2812 8.29688
L54.3906 8.29688
L54.3906 0
L12.4062 0
z
" id="DejaVuSans-31"/>
     </defs>
     <g transform="translate(250.012434649 369.593716808)scale(0.12 -0.12)">
      <use xlink:href="#DejaVuSans-31"/>
      <use x="63.623046875" xlink:href="#DejaVuSans-30"/>
     </g>
    </g>
   </g>
   <g id="xtick_7">
    <g id="line2d_8">
     <path d="
M291.414 351.991
L288.302 354.335" style="fill:none;stroke:#000000;"/>
    </g>
    <g id="text_7">
     <!-- 12 -->
     <g transform="translate(276.76636906 376.412523498)scale(0.12 -0.12)">
      <use xlink:href="#DejaVuSans-31"/>
      <use x="63.623046875" xlink:href="#DejaVuSans-32"/>
     </g>
    </g>
   </g>
   <g id="xtick_8">
    <g id="line2d_9">
     <path d="
M318.251 358.784
L315.173 361.155" style="fill:none;stroke:#000000;"/>
    </g>
    <g id="text_8">
     <!-- 14 -->
     <g transform="translate(303.349964933 383.149985201)scale(0.12 -0.12)">
      <use xlink:href="#DejaVuSans-31"/>
      <use x="63.623046875" xlink:href="#DejaVuSans-34"/>
     </g>
    </g>
   </g>
   <g id="xtick_9">
    <g id="line2d_10">
     <path d="
M345.388 365.654
L342.345 368.052" style="fill:none;stroke:#000000;"/>
    </g>
    <g id="text_9">
     <!-- 16 -->
     <g transform="translate(330.540717911 390.279884871)scale(0.12 -0.12)">
      <use xlink:href="#DejaVuSans-31"/>
      <use x="63.623046875" xlink:href="#DejaVuSans-36"/>
     </g>
    </g>
   </g>
  </g>
  <g id="axis3d_2">
   <g id="line2d_11">
    <path d="
M465.902 275.073
L348.93 367.606" style="fill:none;stroke:#000000;stroke-width:0.75;"/>
   </g>
   <g id="Line3DCollection_2">
    <defs>
     <path d="
M124.84 -291.723
L133.926 -121.388
L351.455 -66.3911" id="C1_0_a86e1d9d19"/>
     <path d="
M147.807 -304.686
L155.614 -135.772
L371.363 -82.1403" id="C1_1_96f7895607"/>
     <path d="
M170.191 -317.32
L176.778 -149.808
L390.769 -97.4921" id="C1_2_2e0e2910e9"/>
     <path d="
M192.013 -329.637
L197.438 -163.51
L409.692 -112.462" id="C1_3_6df352dd30"/>
     <path d="
M213.295 -341.648
L217.611 -176.889
L428.15 -127.063" id="C1_4_b283806f2a"/>
     <path d="
M234.055 -353.366
L237.314 -189.957
L446.158 -141.309" id="C1_5_f5e35177e8"/>
     <path d="
M254.314 -364.8
L256.564 -202.724
L463.734 -155.213" id="C1_6_4fc8a8dc00"/>
    </defs>
    <use style="fill:none;stroke:#e6e6e6;stroke-linecap:butt;" x="0" xlink:href="#C1_0_a86e1d9d19" y="432.0"/>
    <use style="fill:none;stroke:#e6e6e6;stroke-linecap:butt;" x="0" xlink:href="#C1_1_96f7895607" y="432.0"/>
    <use style="fill:none;stroke:#e6e6e6;stroke-linecap:butt;" x="0" xlink:href="#C1_2_2e0e2910e9" y="432.0"/>
    <use style="fill:none;stroke:#e6e6e6;stroke-linecap:butt;" x="0" xlink:href="#C1_3_6df352dd30" y="432.0"/>
    <use style="fill:none;stroke:#e6e6e6;stroke-linecap:butt;" x="0" xlink:href="#C1_4_b283806f2a" y="432.0"/>
    <use style="fill:none;stroke:#e6e6e6;stroke-linecap:butt;" x="0" xlink:href="#C1_5_f5e35177e8" y="432.0"/>
    <use style="fill:none;stroke:#e6e6e6;stroke-linecap:butt;" x="0" xlink:href="#C1_6_4fc8a8dc00" y="432.0"/>
   </g>
   <g id="xtick_10">
    <g id="line2d_12">
     <path d="
M349.634 365.149
L355.1 366.531" style="fill:none;stroke:#000000;"/>
    </g>
    <g id="text_10">
     <!-- 0 -->
     <g transform="translate(361.024777747 387.037544635)scale(0.12 -0.12)">
      <use xlink:href="#DejaVuSans-30"/>
     </g>
    </g>
   </g>
   <g id="xtick_11">
    <g id="line2d_13">
     <path d="
M369.558 349.411
L374.977 350.758" style="fill:none;stroke:#000000;"/>
    </g>
    <g id="text_11">
     <!-- 1 -->
     <g transform="translate(381.183662411 370.97724386)scale(0.12 -0.12)">
      <use xlink:href="#DejaVuSans-31"/>
     </g>
    </g>
   </g>
   <g id="xtick_12">
    <g id="line2d_14">
     <path d="
M388.98 334.07
L394.352 335.384" style="fill:none;stroke:#000000;"/>
    </g>
    <g id="text_12">
     <!-- 2 -->
     <g transform="translate(400.253197941 355.632970085)scale(0.12 -0.12)">
      <use xlink:href="#DejaVuSans-32"/>
     </g>
    </g>
   </g>
   <g id="xtick_13">
    <g id="line2d_15">
     <path d="
M407.919 319.112
L413.244 320.393" style="fill:none;stroke:#000000;"/>
    </g>
    <g id="text_13">
     <!-- 3 -->
     <defs>
      <path d="
M40.5781 39.3125
Q47.6562 37.7969 51.625 33
Q55.6094 28.2188 55.6094 21.1875
Q55.6094 10.4062 48.1875 4.48438
Q40.7656 -1.42188 27.0938 -1.42188
Q22.5156 -1.42188 17.6562 -0.515625
Q12.7969 0.390625 7.625 2.20312
L7.625 11.7188
Q11.7188 9.32812 16.5938 8.10938
Q21.4844 6.89062 26.8125 6.89062
Q36.0781 6.89062 40.9375 10.5469
Q45.7969 14.2031 45.7969 21.1875
Q45.7969 27.6406 41.2812 31.2656
Q36.7656 34.9062 28.7188 34.9062
L20.2188 34.9062
L20.2188 43.0156
L29.1094 43.0156
Q36.375 43.0156 40.2344 45.9219
Q44.0938 48.8281 44.0938 54.2969
Q44.0938 59.9062 40.1094 62.9062
Q36.1406 65.9219 28.7188 65.9219
Q24.6562 65.9219 20.0156 65.0312
Q15.375 64.1562 9.8125 62.3125
L9.8125 71.0938
Q15.4375 72.6562 20.3438 73.4375
Q25.25 74.2188 29.5938 74.2188
Q40.8281 74.2188 47.3594 69.1094
Q53.9062 64.0156 53.9062 55.3281
Q53.9062 49.2656 50.4375 45.0938
Q46.9688 40.9219 40.5781 39.3125" id="DejaVuSans-33"/>
     </defs>
     <g transform="translate(418.913854194 340.517242916)scale(0.12 -0.12)">
      <use xlink:href="#DejaVuSans-33"/>
     </g>
    </g>
   </g>
   <g id="xtick_14">
    <g id="line2d_16">
     <path d="
M426.391 304.521
L431.67 305.771" style="fill:none;stroke:#000000;"/>
    </g>
    <g id="text_14">
     <!-- 4 -->
     <g transform="translate(436.906748767 325.61581891)scale(0.12 -0.12)">
      <use xlink:href="#DejaVuSans-34"/>
     </g>
    </g>
   </g>
   <g id="xtick_15">
    <g id="line2d_17">
     <path d="
M444.415 290.285
L449.649 291.504" style="fill:none;stroke:#000000;"/>
    </g>
    <g id="text_15">
     <!-- 5 -->
     <defs>
      <path d="
M10.7969 72.9062
L49.5156 72.9062
L49.5156 64.5938
L19.8281 64.5938
L19.8281 46.7344
Q21.9688 47.4688 24.1094 47.8281
Q26.2656 48.1875 28.4219 48.1875
Q40.625 48.1875 47.75 41.5
Q54.8906 34.8125 54.8906 23.3906
Q54.8906 11.625 47.5625 5.09375
Q40.2344 -1.42188 26.9062 -1.42188
Q22.3125 -1.42188 17.5469 -0.640625
Q12.7969 0.140625 7.71875 1.70312
L7.71875 11.625
Q12.1094 9.23438 16.7969 8.0625
Q21.4844 6.89062 26.7031 6.89062
Q35.1562 6.89062 40.0781 11.3281
Q45.0156 15.7656 45.0156 23.3906
Q45.0156 31 40.0781 35.4375
Q35.1562 39.8906 26.7031 39.8906
Q22.75 39.8906 18.8125 39.0156
Q14.8906 38.1406 10.7969 36.2812
z
" id="DejaVuSans-35"/>
     </defs>
     <g transform="translate(455.120577566 311.230146803)scale(0.12 -0.12)">
      <use xlink:href="#DejaVuSans-35"/>
     </g>
    </g>
   </g>
   <g id="xtick_16">
    <g id="line2d_18">
     <path d="
M462.006 276.391
L467.195 277.581" style="fill:none;stroke:#000000;"/>
    </g>
    <g id="text_16">
     <!-- 6 -->
     <g transform="translate(472.358228871 297.347325973)scale(0.12 -0.12)">
      <use xlink:href="#DejaVuSans-36"/>
     </g>
    </g>
   </g>
  </g>
  <g id="axis3d_3">
   <g id="line2d_19">
    <path d="
M465.902 275.073
L474.561 108.279" style="fill:none;stroke:#000000;stroke-width:0.75;"/>
   </g>
   <g id="Line3DCollection_3">
    <defs>
     <path d="
M466.066 -160.1
L258.899 -207.385
L131.002 -122.803" id="C2_0_3f3cbe06ab"/>
     <path d="
M466.95 -177.127
L258.681 -223.945
L130.059 -140.184" id="C2_1_ddbadb3634"/>
     <path d="
M467.844 -194.338
L258.461 -240.675
L129.105 -157.759" id="C2_2_675093d56c"/>
     <path d="
M468.747 -211.735
L258.239 -257.58
L128.141 -175.531" id="C2_3_dc1a5acb64"/>
     <path d="
M469.66 -229.322
L258.015 -274.661
L127.166 -193.503" id="C2_4_e7e965ef3a"/>
     <path d="
M470.583 -247.102
L257.788 -291.921
L126.18 -211.678" id="C2_5_5485369b1b"/>
     <path d="
M471.516 -265.078
L257.559 -309.364
L125.183 -230.061" id="C2_6_079f52ed60"/>
     <path d="
M472.46 -283.253
L257.327 -326.991
L124.174 -248.654" id="C2_7_129bdd96e9"/>
     <path d="
M473.414 -301.63
L257.093 -344.806
L123.154 -267.462" id="C2_8_05015eb2d4"/>
     <path d="
M474.379 -320.214
L256.857 -362.812
L122.121 -286.487" id="C2_9_4f8517cd78"/>
    </defs>
    <use style="fill:none;stroke:#e6e6e6;stroke-linecap:butt;" x="0" xlink:href="#C2_0_3f3cbe06ab" y="432.0"/>
    <use style="fill:none;stroke:#e6e6e6;stroke-linecap:butt;" x="0" xlink:href="#C2_1_ddbadb3634" y="432.0"/>
    <use style="fill:none;stroke:#e6e6e6;stroke-linecap:butt;" x="0" xlink:href="#C2_2_675093d56c" y="432.0"/>
    <use style="fill:none;stroke:#e6e6e6;stroke-linecap:butt;" x="0" xlink:href="#C2_3_dc1a5acb64" y="432.0"/>
    <use style="fill:none;stroke:#e6e6e6;stroke-linecap:butt;" x="0" xlink:href="#C2_4_e7e965ef3a" y="432.0"/>
    <use style="fill:none;stroke:#e6e6e6;stroke-linecap:butt;" x="0" xlink:href="#C2_5_5485369b1b" y="432.0"/>
    <use style="fill:none;stroke:#e6e6e6;stroke-linecap:butt;" x="0" xlink:href="#C2_6_079f52ed60" y="432.0"/>
    <use style="fill:none;stroke:#e6e6e6;stroke-linecap:butt;" x="0" xlink:href="#C2_7_129bdd96e9" y="432.0"/>
    <use style="fill:none;stroke:#e6e6e6;stroke-linecap:butt;" x="0" xlink:href="#C2_8_05015eb2d4" y="432.0"/>
    <use style="fill:none;stroke:#e6e6e6;stroke-linecap:butt;" x="0" xlink:href="#C2_9_4f8517cd78" y="432.0"/>
   </g>
   <g id="xtick_17">
    <g id="line2d_20">
     <path d="
M464.338 271.506
L469.527 272.69" style="fill:none;stroke:#000000;"/>
    </g>
    <g id="text_17">
     <!-- 32500 -->
     <g transform="translate(465.971375797 278.787712895)scale(0.12 -0.12)">
      <use xlink:href="#DejaVuSans-33"/>
      <use x="63.623046875" xlink:href="#DejaVuSans-32"/>
      <use x="127.24609375" xlink:href="#DejaVuSans-35"/>
      <use x="190.869140625" xlink:href="#DejaVuSans-30"/>
      <use x="254.4921875" xlink:href="#DejaVuSans-30"/>
     </g>
    </g>
   </g>
   <g id="xtick_18">
    <g id="line2d_21">
     <path d="
M465.212 254.482
L470.43 255.655" style="fill:none;stroke:#000000;"/>
    </g>
    <g id="text_18">
     <!-- 33000 -->
     <g transform="translate(466.950851213 261.780066669)scale(0.12 -0.12)">
      <use xlink:href="#DejaVuSans-33"/>
      <use x="63.623046875" xlink:href="#DejaVuSans-33"/>
      <use x="127.24609375" xlink:href="#DejaVuSans-30"/>
      <use x="190.869140625" xlink:href="#DejaVuSans-30"/>
      <use x="254.4921875" xlink:href="#DejaVuSans-30"/>
     </g>
    </g>
   </g>
   <g id="xtick_19">
    <g id="line2d_22">
     <path d="
M466.096 237.276
L471.343 238.437" style="fill:none;stroke:#000000;"/>
    </g>
    <g id="text_19">
     <!-- 33500 -->
     <g transform="translate(467.940869698 244.589350196)scale(0.12 -0.12)">
      <use xlink:href="#DejaVuSans-33"/>
      <use x="63.623046875" xlink:href="#DejaVuSans-33"/>
      <use x="127.24609375" xlink:href="#DejaVuSans-35"/>
      <use x="190.869140625" xlink:href="#DejaVuSans-30"/>
      <use x="254.4921875" xlink:href="#DejaVuSans-30"/>
     </g>
    </g>
   </g>
   <g id="xtick_20">
    <g id="line2d_23">
     <path d="
M466.989 219.882
L472.266 221.031" style="fill:none;stroke:#000000;"/>
    </g>
    <g id="text_20">
     <!-- 34000 -->
     <g transform="translate(468.941602402 227.212591632)scale(0.12 -0.12)">
      <use xlink:href="#DejaVuSans-33"/>
      <use x="63.623046875" xlink:href="#DejaVuSans-34"/>
      <use x="127.24609375" xlink:href="#DejaVuSans-30"/>
      <use x="190.869140625" xlink:href="#DejaVuSans-30"/>
      <use x="254.4921875" xlink:href="#DejaVuSans-30"/>
     </g>
    </g>
   </g>
   <g id="xtick_21">
    <g id="line2d_24">
     <path d="
M467.893 202.299
L473.199 203.436" style="fill:none;stroke:#000000;"/>
    </g>
    <g id="text_21">
     <!-- 34500 -->
     <g transform="translate(469.953224201 209.646754457)scale(0.12 -0.12)">
      <use xlink:href="#DejaVuSans-33"/>
      <use x="63.623046875" xlink:href="#DejaVuSans-34"/>
      <use x="127.24609375" xlink:href="#DejaVuSans-35"/>
      <use x="190.869140625" xlink:href="#DejaVuSans-30"/>
      <use x="254.4921875" xlink:href="#DejaVuSans-30"/>
     </g>
    </g>
   </g>
   <g id="xtick_22">
    <g id="line2d_25">
     <path d="
M468.806 184.524
L474.142 185.648" style="fill:none;stroke:#000000;"/>
    </g>
    <g id="text_22">
     <!-- 35000 -->
     <g transform="translate(470.975913793 191.888735708)scale(0.12 -0.12)">
      <use xlink:href="#DejaVuSans-33"/>
      <use x="63.623046875" xlink:href="#DejaVuSans-35"/>
      <use x="127.24609375" xlink:href="#DejaVuSans-30"/>
      <use x="190.869140625" xlink:href="#DejaVuSans-30"/>
      <use x="254.4921875" xlink:href="#DejaVuSans-30"/>
     </g>
    </g>
   </g>
   <g id="xtick_23">
    <g id="line2d_26">
     <path d="
M469.729 166.552
L475.095 167.663" style="fill:none;stroke:#000000;"/>
    </g>
    <g id="text_23">
     <!-- 35500 -->
     <g transform="translate(472.009853812 173.935364151)scale(0.12 -0.12)">
      <use xlink:href="#DejaVuSans-33"/>
      <use x="63.623046875" xlink:href="#DejaVuSans-35"/>
      <use x="127.24609375" xlink:href="#DejaVuSans-35"/>
      <use x="190.869140625" xlink:href="#DejaVuSans-30"/>
      <use x="254.4921875" xlink:href="#DejaVuSans-30"/>
     </g>
    </g>
   </g>
   <g id="xtick_24">
    <g id="line2d_27">
     <path d="
M470.662 148.382
L476.059 149.479" style="fill:none;stroke:#000000;"/>
    </g>
    <g id="text_24">
     <!-- 36000 -->
     <g transform="translate(473.055230929 155.783398397)scale(0.12 -0.12)">
      <use xlink:href="#DejaVuSans-33"/>
      <use x="63.623046875" xlink:href="#DejaVuSans-36"/>
      <use x="127.24609375" xlink:href="#DejaVuSans-30"/>
      <use x="190.869140625" xlink:href="#DejaVuSans-30"/>
      <use x="254.4921875" xlink:href="#DejaVuSans-30"/>
     </g>
    </g>
   </g>
   <g id="xtick_25">
    <g id="line2d_28">
     <path d="
M471.606 130.009
L477.034 131.093" style="fill:none;stroke:#000000;"/>
    </g>
    <g id="text_25">
     <!-- 36500 -->
     <g transform="translate(474.112235972 137.429524943)scale(0.12 -0.12)">
      <use xlink:href="#DejaVuSans-33"/>
      <use x="63.623046875" xlink:href="#DejaVuSans-36"/>
      <use x="127.24609375" xlink:href="#DejaVuSans-35"/>
      <use x="190.869140625" xlink:href="#DejaVuSans-30"/>
      <use x="254.4921875" xlink:href="#DejaVuSans-30"/>
     </g>
    </g>
   </g>
   <g id="xtick_26">
    <g id="line2d_29">
     <path d="
M472.56 111.43
L478.02 112.5" style="fill:none;stroke:#000000;"/>
    </g>
    <g id="text_26">
     <!-- 37000 -->
     <defs>
      <path d="
M8.20312 72.9062
L55.0781 72.9062
L55.0781 68.7031
L28.6094 0
L18.3125 0
L43.2188 64.5938
L8.20312 64.5938
z
" id="DejaVuSans-37"/>
     </defs>
     <g transform="translate(475.181064033 118.870356165)scale(0.12 -0.12)">
      <use xlink:href="#DejaVuSans-33"/>
      <use x="63.623046875" xlink:href="#DejaVuSans-37"/>
      <use x="127.24609375" xlink:href="#DejaVuSans-30"/>
      <use x="190.869140625" xlink:href="#DejaVuSans-30"/>
      <use x="254.4921875" xlink:href="#DejaVuSans-30"/>
     </g>
    </g>
   </g>
  </g>
  <g id="axes_1">
   <g id="Poly3DCollection_1">
    <defs>
     <path d="
M252.567 -263.27
L250.839 -272.98
L249.224 -304.579
L248.817 -279.908
L248.254 -280.063
L247.455 -304.947
L216.137 -261.238
L192.66 -256.497
L174.113 -291.259
L162.907 -258.898
L156.094 -211.536
L149.615 -215.286
L142.665 -266.048
L140.445 -245.178
L140.226 -203.747
L139.108 -194.112
L136.691 -250.152
L138.148 -232.797
L140.986 -192.492
L141.583 -203.676
L141.509 -238.507
L144.839 -203.272
L148.364 -176.808
L149.294 -224.23
L152.832 -245.375
L161.243 -198.207
L169.89 -200.953
L181.545 -215.782
L197.215 -256.347
L221.103 -242.534
L252.567 -263.27
z
" id="C3_0_3ad515a1b9"/>
     <path d="
M428.774 -284.267
L373.874 -295.516
L335.782 -303.321
L309.202 -308.767
L290.757 -257.946
L278.001 -245.355
L269.015 -244.444
L262.56 -254.894
L257.926 -266.741
L254.911 -255.703
L252.567 -263.27
L221.103 -242.534
L197.215 -256.347
L181.545 -215.782
L169.89 -200.953
L161.243 -198.207
L152.832 -245.375
L149.294 -224.23
L148.364 -176.808
L144.839 -203.272
L141.509 -238.507
L144.729 -220.33
L149.729 -184.368
L152.852 -217.036
L159.32 -220.603
L170.734 -171.991
L185.529 -128.953
L204.398 -120.402
L230.506 -141.829
L268.222 -226.478
L325.678 -213.618
L327.15 -214.627
L329.227 -216.05
L332.155 -218.057
L336.278 -220.882
L342.072 -224.852
L350.193 -230.418
L361.535 -238.19
L377.297 -248.991
L399.048 -263.896
L428.774 -284.267
z
" id="C3_1_a98e647041"/>
     <path d="
M141.509 -238.507
L141.583 -203.676
L140.986 -192.492
L138.148 -232.797
L136.691 -250.152
L139.108 -194.112
L135.153 -249.584
L135.158 -233.51
L136.61 -194.005
L135.885 -200.274
L133.141 -248.01
L134.678 -226.176
L136.084 -210.089
L135.708 -233.533
L136.961 -231.856
L139.944 -205.295
L139.026 -229.348
L139.263 -232.73
L140.978 -209.765
L141.2 -221.557
L141.509 -238.507
z
" id="C3_2_12b05996db"/>
     <path d="
M325.678 -213.618
L268.222 -226.478
L230.506 -141.829
L204.398 -120.402
L185.529 -128.953
L170.734 -171.991
L159.32 -220.603
L152.852 -217.036
L149.729 -184.368
L144.729 -220.33
L141.509 -238.507
L141.2 -221.557
L140.978 -209.765
L139.263 -232.73
L139.026 -229.348
L139.944 -205.295
L144.36 -162.852
L148.432 -145.699
L150.793 -192.861
L156.091 -221.574
L163.999 -258.079
L178.52 -233.414
L197.315 -247.734
L224.748 -259.574
L265.218 -224.515
L322.744 -211.608
L323.006 -211.787
L323.375 -212.04
L323.897 -212.398
L324.635 -212.904
L325.678 -213.618
z
" id="C3_3_e1d15996a7"/>
    </defs>
    <g clip-path="url(#p7ff5b81e1d)">
     <use style="fill:#0000ef;stroke:#000000;stroke-linecap:butt;" x="0" xlink:href="#C3_0_3ad515a1b9" y="432.0"/>
    </g>
    <g clip-path="url(#p7ff5b81e1d)">
     <use style="fill:#0000ef;stroke:#000000;stroke-linecap:butt;" x="0" xlink:href="#C3_1_a98e647041" y="432.0"/>
    </g>
    <g clip-path="url(#p7ff5b81e1d)">
     <use style="fill:#0000ff;stroke:#000000;stroke-linecap:butt;" x="0" xlink:href="#C3_2_12b05996db" y="432.0"/>
    </g>
    <g clip-path="url(#p7ff5b81e1d)">
     <use style="fill:#000080;stroke:#000000;stroke-linecap:butt;" x="0" xlink:href="#C3_3_e1d15996a7" y="432.0"/>
    </g>
   </g>
  </g>
 </g>
 <defs>
  <clipPath id="p7ff5b81e1d">
   <rect height="345.6" width="446.4" x="72.0" y="43.2"/>
  </clipPath>
 </defs>
</svg>
